<svg width="62" height="62" viewBox="0 0 62 62" fill="none" xmlns="http://www.w3.org/2000/svg">
<path d="M54.2499 7.75H7.74992C4.88242 7.75 2.58325 10.0492 2.58325 12.9167V43.9167C2.58325 45.2869 3.1276 46.6011 4.09653 47.57C5.06547 48.539 6.37963 49.0833 7.74992 49.0833H20.6666V54.25H41.3333V49.0833H54.2499C55.6202 49.0833 56.9344 48.539 57.9033 47.57C58.8722 46.6011 59.4166 45.2869 59.4166 43.9167V12.9167C59.4166 11.5464 58.8722 10.2322 57.9033 9.26328C56.9344 8.29434 55.6202 7.75 54.2499 7.75ZM54.2499 43.9167H7.74992V12.9167H54.2499V43.9167ZM41.3333 28.4167L23.2499 38.75V18.0833" fill="#234C62"/>
</svg>
