<svg width="62" height="62" viewBox="0 0 62 62" fill="none" xmlns="http://www.w3.org/2000/svg">
<path d="M54.25 45.2083V50.375M10.3333 15.5C10.3333 14.4723 10.7416 13.4867 11.4683 12.76C12.195 12.0333 13.1806 11.625 14.2083 11.625H47.7917C48.8194 11.625 49.805 12.0333 50.5317 12.76C51.2584 13.4867 51.6667 14.4723 51.6667 15.5V29.7083H10.3333V15.5ZM7.75 45.2083V50.375V45.2083Z" stroke="black" stroke-width="2.08333" stroke-linecap="round" stroke-linejoin="round"/>
<path d="M25.8335 23.25H18.0835C17.0558 23.25 16.0702 23.6583 15.3435 24.385C14.6168 25.1117 14.2085 26.0973 14.2085 27.125V29.7083H29.7085V27.125C29.7085 26.0973 29.3002 25.1117 28.5735 24.385C27.8468 23.6583 26.8612 23.25 25.8335 23.25ZM43.9168 23.25H36.1668C35.1391 23.25 34.1535 23.6583 33.4268 24.385C32.7001 25.1117 32.2918 26.0973 32.2918 27.125V29.7083H47.7918V27.125C47.7918 26.0973 47.3836 25.1117 46.6569 24.385C45.9302 23.6583 44.9445 23.25 43.9168 23.25Z" fill="#234C62" stroke="black" stroke-width="2.08333" stroke-linecap="round" stroke-linejoin="round"/>
<path d="M5.16675 33.5834C5.16675 32.5557 5.57501 31.57 6.30171 30.8433C7.02841 30.1166 8.01403 29.7084 9.04175 29.7084H52.9584C53.9861 29.7084 54.9717 30.1166 55.6984 30.8433C56.4251 31.57 56.8334 32.5557 56.8334 33.5834V45.2084H5.16675V33.5834Z" stroke="black" stroke-width="2.08333" stroke-linecap="round" stroke-linejoin="round"/>
</svg>
